# xmcd CD database file
#
# Track frame offsets:
#	150
#	13438
#	25010
#	37933
#	52510
#	55158
#	66332
#	77850
#	92450
#	105732
#	118680
#	132961
#	146049
#	158499
#	170452
#
# Disc length: 2463 seconds
#
# Revision: 0
# Processed by: cddbd v1.4PL0 Copyright (c) Steve Scherf et al.
# Submitted via: CDex 1.50beta10
#
DISCID=bc099d0f
DTITLE=Chet Baker - Complete 1952 fantasy and pacif jazz sessions
DYEAR=2002
DGENRE=Jazz
TTITLE0=Dinah
TTITLE1=She Didn't say yes
TTITLE2=Bernues'tune
TTITLE3=Lullaby of the leaves
TTITLE4=Utter chaos
TTITLE5=Carioca
TTITLE6=Line for Lyons
TTITLE7=Batk for Barskdale
TTITLE8=My funy valentine
TTITLE9=Aren't youglad
TTITLE10=Frenesi
TTITLE11=Nights at
TTITLE12=Freeway
TTITLE13=Soft shoe
TTITLE14=Walkin's shoes
EXTD=YEAR: 2002
EXTT0=
EXTT1=
EXTT2=
EXTT3=
EXTT4=
EXTT5=
EXTT6=
EXTT7=
EXTT8=
EXTT9=
EXTT10=
EXTT11=
EXTT12=
EXTT13=
EXTT14=
PLAYORDER=
